<?xml version="1.0" encoding="utf-8"?>
<!-- Generator: Adobe Illustrator 24.0.3, SVG Export Plug-In . SVG Version: 6.00 Build 0)  -->
<svg version="1.1" id="Layer_1" xmlns="http://www.w3.org/2000/svg" xmlns:xlink="http://www.w3.org/1999/xlink" x="0px" y="0px"
	 viewBox="0 0 24 24" style="enable-background:new 0 0 24 24;" xml:space="preserve">
<style type="text/css">
	.st0{fill:#FFFFFF;}
</style>
<path class="st0" d="M7.3,14.7V9.3c0-1.1,0.9-2.1,2.1-2.1h5.4c1.1,0,2.1,0.9,2.1,2.1v7.5H9.3C8.2,16.7,7.3,15.8,7.3,14.7
	C7.3,14.7,7.3,14.7,7.3,14.7z"/>
<path class="st0" d="M16.5,3.4c2.3,0,4.1,1.8,4.1,4.1v13.1H7.5c-2.3-0.1-4.1-1.9-4-4.2V7.5c0-2.3,1.8-4.1,4.1-4.1L16.5,3.4 M16.5,0
	H7.6C3.4,0,0,3.4,0,7.5v8.9C0,20.6,3.4,24,7.5,24c0,0,0,0,0,0H24V7.5C24,3.4,20.6,0,16.5,0C16.5,0,16.5,0,16.5,0L16.5,0z"/>
</svg>
