<?xml version="1.0" encoding="utf-8"?>
<!-- Generator: Adobe Illustrator 24.0.3, SVG Export Plug-In . SVG Version: 6.00 Build 0)  -->
<svg version="1.1" id="Layer_1" xmlns="http://www.w3.org/2000/svg" xmlns:xlink="http://www.w3.org/1999/xlink" x="0px" y="0px"
	 viewBox="0 0 24 24" style="enable-background:new 0 0 24 24;" xml:space="preserve">
<style type="text/css">
	.st0{fill:#00BFFF;}
</style>
<path class="st0" d="M6.8,15V9c0-1.2,1-2.2,2.2-2.2H15c1.2,0,2.2,1,2.2,2.2v8.2l0,0H9C7.8,17.2,6.8,16.2,6.8,15
	C6.8,15,6.8,15,6.8,15z"/>
<path class="st0" d="M16.5,3.4c2.3,0,4.1,1.8,4.1,4.1v13h-13c-2.3,0-4.1-1.8-4.1-4.1V7.5c0-2.3,1.8-4.1,4.1-4.1H16.5 M16.5,0H7.5
	C3.4,0,0,3.4,0,7.5v8.9C0,20.6,3.4,24,7.5,24H24V7.5C24,3.4,20.6,0,16.5,0L16.5,0z"/>
</svg>
